<svg xmlns="http://www.w3.org/2000/svg" viewBox="0 0 531.59 63.02"><defs><style>.cls-1,.cls-2{fill:#22356b;}.cls-1,.cls-3,.cls-4{fill-rule:evenodd;}.cls-3{fill:#f15e22;}.cls-4{fill:#52ad47;}.cls-5{fill:#2a2b5e;}.cls-6{fill:#414042;}</style></defs><g id="Layer_2" data-name="Layer 2"><g id="Layer_1-2" data-name="Layer 1"><polygon class="cls-1" points="54.56 23.76 47.87 10.16 47.21 10.86 53.71 24.1 54.56 23.76"/><path class="cls-1" d="M65.89,46.81,56.62,28l-.86.32L65,47.18a2.28,2.28,0,0,0,1.46,1.08l.17-.9c-.28,0-.54-.19-.78-.55"/><rect class="cls-2" x="7.23" y="49.68" width="2" height="10.67"/><polygon class="cls-2" points="23.61 49.67 25.62 49.67 25.62 60.35 24.37 60.35 24.37 60.37 18.76 53.16 18.76 60.35 16.75 60.35 16.75 49.68 18.38 49.68 23.61 56.3 23.61 49.67"/><path class="cls-2" d="M42.34,54.93A5,5,0,0,1,37,60.35H32.82V49.68H37a5,5,0,0,1,5.33,5.25m-7.53,3.48H37a3.41,3.41,0,0,0,0-6.82h-2.2Z"/><rect class="cls-2" x="49.17" y="49.68" width="2" height="10.67"/><path class="cls-2" d="M66.12,58.34H60.54l-.92,2H57.45l4.78-10.67h2.2l4.78,10.67H67Zm-2.79-6.42-2,4.54h4Z"/><path class="cls-1" d="M59.06,22l2.61-.24-9.79-20c-1.83-2.07-3.72-2.47-5.73.12L27.55,38.14a5.52,5.52,0,0,1-3.64,3C1.74,42-4.12,8,22.82,4.93l12.36.23c2.32,0,2.22-4.49,0-4.83L22,.26C-3.32.58-11.65,42.42,23.48,46.54A9.37,9.37,0,0,0,30,43.87L47.18,9.94c.76-1.65,1.57-1.77,2.42,0L56,23.17Z"/><path class="cls-1" d="M63.49,25.43l-5.39,2,9.06,18.67A6.7,6.7,0,0,0,73.52,46Z"/><path class="cls-3" d="M36.73,25c12.47-1,25.38-5,38.12-8.47C62.6,22.85,54,25,43.31,27.91L46.48,34l-3.8,1.69Z"/><path class="cls-4" d="M47,29.27c14.1-4.43,22.53-7,34.29-11.47A197.79,197.79,0,0,1,52.8,31.28L56,37.07l-3.44,2Z"/><path class="cls-5" d="M97.72,41.34a10.24,10.24,0,0,1-4.48-3.4,9.35,9.35,0,0,1-1.78-5.43h8.38a4,4,0,0,0,1.24,2.74,4,4,0,0,0,2.76.94,4.32,4.32,0,0,0,2.76-.81,2.69,2.69,0,0,0,1-2.23,2.65,2.65,0,0,0-.8-2,6.46,6.46,0,0,0-2-1.29,31.46,31.46,0,0,0-3.34-1.15,37.34,37.34,0,0,1-5.1-1.93A9.49,9.49,0,0,1,93,24,7.92,7.92,0,0,1,91.56,19,8.45,8.45,0,0,1,94.82,12a13.45,13.45,0,0,1,8.51-2.55,13.56,13.56,0,0,1,8.6,2.55,9.12,9.12,0,0,1,3.5,7.11h-8.51a3.3,3.3,0,0,0-1.15-2.46,4,4,0,0,0-2.71-.9,3.36,3.36,0,0,0-2.3.76,2.7,2.7,0,0,0-.88,2.18,2.7,2.7,0,0,0,1.47,2.44A25,25,0,0,0,106,23,42.69,42.69,0,0,1,111,25a9.74,9.74,0,0,1,3.38,2.81,7.49,7.49,0,0,1,1.42,4.74,9.23,9.23,0,0,1-1.4,5,9.81,9.81,0,0,1-4.07,3.59,13.93,13.93,0,0,1-6.3,1.33A16.56,16.56,0,0,1,97.72,41.34Z"/><path class="cls-5" d="M149.15,42.17,138.29,27.91V42.17h-7.86V9.88h7.86V24.05L149.06,9.88h9.24L145.79,25.7l13,16.47Z"/><path class="cls-5" d="M196.3,28.39a7.93,7.93,0,0,1,1.7,5,7.93,7.93,0,0,1-2.83,6.42q-2.83,2.37-7.89,2.37h-15V9.88h14.53c3.29,0,5.85.75,7.71,2.25a7.46,7.46,0,0,1,2.78,6.12A7.44,7.44,0,0,1,195.77,23a7.75,7.75,0,0,1-4,2.62A7.57,7.57,0,0,1,196.3,28.39Zm-16.2-5.45h5.16a4.54,4.54,0,0,0,3-.85,3.06,3.06,0,0,0,1-2.51,3.14,3.14,0,0,0-1-2.53,4.49,4.49,0,0,0-3-.87H180.1Zm8.86,12A3.16,3.16,0,0,0,190,32.33a3.32,3.32,0,0,0-1.13-2.67,4.57,4.57,0,0,0-3.1-1H180.1v7.13h5.8A4.65,4.65,0,0,0,189,34.92Z"/><path class="cls-5" d="M230.52,9.88V42.17h-7.87V28.88H210.42V42.17h-7.87V9.88h7.87V22.53h12.23V9.88Z"/><path class="cls-5" d="M256.28,36.47h-12l-1.93,5.7h-8.24L245.75,9.88h9.1l11.69,32.29h-8.33Zm-2-6.08-4-11.82L246.3,30.39Z"/><path class="cls-5" d="M300.39,9.88,288.94,42.17H279.1L267.64,9.88H276l8,24.38,8.05-24.38Z"/><path class="cls-5" d="M309,41.34a10.27,10.27,0,0,1-4.49-3.4,9.28,9.28,0,0,1-1.77-5.43h8.37a4.07,4.07,0,0,0,1.24,2.74,4,4,0,0,0,2.76.94,4.28,4.28,0,0,0,2.76-.81,2.67,2.67,0,0,0,1-2.23,2.62,2.62,0,0,0-.81-2,6.46,6.46,0,0,0-2-1.29,31.14,31.14,0,0,0-3.33-1.15,37.53,37.53,0,0,1-5.11-1.93,9.46,9.46,0,0,1-3.4-2.86A7.92,7.92,0,0,1,302.83,19,8.46,8.46,0,0,1,306.1,12a13.41,13.41,0,0,1,8.51-2.55,13.6,13.6,0,0,1,8.6,2.55,9.15,9.15,0,0,1,3.5,7.11H318.2a3.37,3.37,0,0,0-1.15-2.46,4.06,4.06,0,0,0-2.72-.9,3.36,3.36,0,0,0-2.3.76,2.73,2.73,0,0,0-.87,2.18,2.7,2.7,0,0,0,1.47,2.44,24.45,24.45,0,0,0,4.6,1.89,42.45,42.45,0,0,1,5.08,2,9.74,9.74,0,0,1,3.38,2.81,7.49,7.49,0,0,1,1.43,4.74,9.32,9.32,0,0,1-1.4,5,9.93,9.93,0,0,1-4.07,3.59,13.94,13.94,0,0,1-6.31,1.33A16.51,16.51,0,0,1,309,41.34Z"/><path class="cls-5" d="M352.05,36.47H340l-1.93,5.7h-8.24L341.52,9.88h9.11l11.68,32.29H354Zm-2-6.08-4-11.82-4,11.82Z"/><path class="cls-5" d="M382.32,42.17,375.6,30h-1.88V42.17h-7.87V9.88h13.2a14.5,14.5,0,0,1,6.51,1.33,9.18,9.18,0,0,1,4,3.66A10.18,10.18,0,0,1,390.92,20a9.59,9.59,0,0,1-1.81,5.75,9.78,9.78,0,0,1-5.36,3.59l7.45,12.79Zm-8.6-17.76h4.87a4.5,4.5,0,0,0,3.25-1.05,4,4,0,0,0,1.08-3,3.86,3.86,0,0,0-1.08-2.9,4.46,4.46,0,0,0-3.25-1.06h-4.87Z"/><path class="cls-5" d="M430.3,42.17l-3-2.9a17.1,17.1,0,0,1-10.68,3.41,16,16,0,0,1-6.48-1.22A9.8,9.8,0,0,1,405.89,38a9.22,9.22,0,0,1-1.49-5.22,9.71,9.71,0,0,1,1.63-5.5,11.87,11.87,0,0,1,4.9-4,10.16,10.16,0,0,1-1.7-2.83,8.33,8.33,0,0,1-.51-3,7.64,7.64,0,0,1,1.2-4.19,8.14,8.14,0,0,1,3.47-3,12.52,12.52,0,0,1,5.41-1.08,11.62,11.62,0,0,1,5.38,1.15,7.94,7.94,0,0,1,3.31,3.09,7.67,7.67,0,0,1,1,4.23h-7.4a2.46,2.46,0,0,0-.62-1.91,2.4,2.4,0,0,0-1.78-.67,2.72,2.72,0,0,0-1.84.65,2.09,2.09,0,0,0-.73,1.65,4.06,4.06,0,0,0,.62,2,14,14,0,0,0,1.95,2.43l7.87,7.69c.06-.16.15-.34.25-.56s.23-.46.35-.73l1.7-2.9h7.87l-2.21,4a38.3,38.3,0,0,1-2.85,5.15l7.77,7.64Zm-7.82-7.59-7.18-6.95Q412,29.34,412,32.23a3.68,3.68,0,0,0,1.36,2.92A5.34,5.34,0,0,0,417,36.33,9,9,0,0,0,422.48,34.58Z"/><path class="cls-5" d="M452.79,17.44a14.86,14.86,0,0,1,5.77-5.84A16.83,16.83,0,0,1,467,9.51a16,16,0,0,1,9.84,3,14.56,14.56,0,0,1,5.48,8.28h-8.65a7.07,7.07,0,0,0-2.74-3.09,7.73,7.73,0,0,0-4-1A7.49,7.49,0,0,0,461,19.22,9.79,9.79,0,0,0,458.72,26,9.81,9.81,0,0,0,461,32.74a7.49,7.49,0,0,0,5.89,2.53,7.64,7.64,0,0,0,4-1.06,7,7,0,0,0,2.74-3.08h8.65a14.48,14.48,0,0,1-5.48,8.26,16.13,16.13,0,0,1-9.84,3,16.83,16.83,0,0,1-8.4-2.09,14.88,14.88,0,0,1-5.77-5.82A17.24,17.24,0,0,1,450.72,26,17.38,17.38,0,0,1,452.79,17.44Z"/><path class="cls-5" d="M494,40.38a15.87,15.87,0,0,1-6-5.92,16.48,16.48,0,0,1-2.23-8.53A16.38,16.38,0,0,1,488,17.42a15.93,15.93,0,0,1,6-5.89,17.58,17.58,0,0,1,16.7,0,15.59,15.59,0,0,1,6,5.89,16.74,16.74,0,0,1,2.18,8.51,16.56,16.56,0,0,1-2.21,8.53,15.67,15.67,0,0,1-6,5.92,17.52,17.52,0,0,1-16.67,0Zm14.53-7.64a9.79,9.79,0,0,0,2.33-6.81,9.76,9.76,0,0,0-2.33-6.83,7.94,7.94,0,0,0-6.18-2.55,8.05,8.05,0,0,0-6.24,2.53,9.76,9.76,0,0,0-2.32,6.85,9.8,9.8,0,0,0,2.32,6.83,8,8,0,0,0,6.24,2.56A7.9,7.9,0,0,0,508.56,32.74Z"/><path class="cls-5" d="M523.56,41.32a4,4,0,0,1-1.31-3,4.1,4.1,0,0,1,1.31-3.09A4.76,4.76,0,0,1,526.94,34a4.71,4.71,0,0,1,3.34,1.24,4.1,4.1,0,0,1,1.31,3.09,4,4,0,0,1-1.31,3,4.74,4.74,0,0,1-3.34,1.22A4.79,4.79,0,0,1,523.56,41.32Z"/><path class="cls-6" d="M183.91,53.27A6,6,0,0,1,186.19,51a6.85,6.85,0,0,1,6.94.26,5.55,5.55,0,0,1,2.21,3h-2.89a3,3,0,0,0-1.22-1.35,3.55,3.55,0,0,0-1.81-.45,3.73,3.73,0,0,0-1.95.51,3.46,3.46,0,0,0-1.33,1.45,4.71,4.71,0,0,0-.48,2.19,4.77,4.77,0,0,0,.48,2.19,3.49,3.49,0,0,0,1.33,1.46,3.73,3.73,0,0,0,1.95.51,3.46,3.46,0,0,0,1.81-.46,3.06,3.06,0,0,0,1.22-1.36h2.89a5.53,5.53,0,0,1-2.2,3,6.37,6.37,0,0,1-3.7,1.07,6.46,6.46,0,0,1-3.25-.82,5.92,5.92,0,0,1-2.28-2.27,7,7,0,0,1,0-6.64Z"/><path class="cls-6" d="M207.93,50.33V62.89h-2.52V57.55H200v5.34h-2.52V50.33H200V55.5h5.38V50.33Z"/><path class="cls-6" d="M218.11,60.5h-5l-.83,2.39h-2.64l4.51-12.58h2.94l4.52,12.58h-2.67Zm-.68-2-1.82-5.25-1.82,5.25Z"/><path class="cls-6" d="M229.78,62.89,227,58h-1.19v4.89H223.3V50.33H228a5.56,5.56,0,0,1,2.49.51A3.67,3.67,0,0,1,232,52.23a3.78,3.78,0,0,1,.51,2,3.72,3.72,0,0,1-.72,2.24,3.66,3.66,0,0,1-2.14,1.38l3,5.09Zm-4-6.78h2.1a2.09,2.09,0,0,0,1.53-.5,1.83,1.83,0,0,0,.51-1.37,1.73,1.73,0,0,0-.51-1.34,2.13,2.13,0,0,0-1.53-.48h-2.1Z"/><path class="cls-6" d="M243.39,50.33v2H240V62.89h-2.52V52.36h-3.35v-2Z"/><path class="cls-6" d="M247.74,52.36v3.15H252v2h-4.23v3.33h4.77v2h-7.29V50.31h7.29v2Z"/><path class="cls-6" d="M261.28,62.89,258.51,58h-1.19v4.89H254.8V50.33h4.71a5.56,5.56,0,0,1,2.49.51,3.67,3.67,0,0,1,1.54,1.39,3.78,3.78,0,0,1,.51,2,3.72,3.72,0,0,1-.72,2.24,3.66,3.66,0,0,1-2.14,1.38l3,5.09Zm-4-6.78h2.1a2.09,2.09,0,0,0,1.53-.5,1.83,1.83,0,0,0,.51-1.37A1.73,1.73,0,0,0,261,52.9a2.13,2.13,0,0,0-1.53-.48h-2.1Z"/><path class="cls-6" d="M268.86,52.36v3.15h4.23v2h-4.23v3.33h4.77v2h-7.29V50.31h7.29v2Z"/><path class="cls-6" d="M283.79,51.1a5.62,5.62,0,0,1,2.32,2.21,6.51,6.51,0,0,1,.82,3.32,6.41,6.41,0,0,1-.82,3.3,5.57,5.57,0,0,1-2.32,2.19,7.48,7.48,0,0,1-3.49.77h-4.39V50.33h4.39A7.6,7.6,0,0,1,283.79,51.1Zm-.52,8.57a4.11,4.11,0,0,0,1.08-3,4.21,4.21,0,0,0-1.08-3.07,4.07,4.07,0,0,0-3.06-1.11h-1.78v8.3h1.78A4.14,4.14,0,0,0,283.27,59.67Z"/><path class="cls-6" d="M300.81,60.5h-5L295,62.89h-2.64l4.52-12.58h2.93l4.52,12.58h-2.67Zm-.69-2-1.82-5.25-1.81,5.25Z"/><path class="cls-6" d="M306.21,53.27A6,6,0,0,1,308.5,51a6.85,6.85,0,0,1,6.94.26,5.59,5.59,0,0,1,2.21,3h-2.89a3,3,0,0,0-1.22-1.35,3.55,3.55,0,0,0-1.81-.45,3.73,3.73,0,0,0-2,.51,3.4,3.4,0,0,0-1.33,1.45,4.71,4.71,0,0,0-.48,2.19,4.77,4.77,0,0,0,.48,2.19,3.43,3.43,0,0,0,1.33,1.46,3.73,3.73,0,0,0,2,.51,3.46,3.46,0,0,0,1.81-.46,3.06,3.06,0,0,0,1.22-1.36h2.89a5.58,5.58,0,0,1-2.2,3,6.37,6.37,0,0,1-3.7,1.07,6.46,6.46,0,0,1-3.25-.82,6,6,0,0,1-2.29-2.27,7.05,7.05,0,0,1,0-6.64Z"/><path class="cls-6" d="M320,53.27A6,6,0,0,1,322.32,51a6.46,6.46,0,0,1,3.25-.82,6.36,6.36,0,0,1,3.69,1.08,5.61,5.61,0,0,1,2.22,3h-2.9a3,3,0,0,0-1.22-1.35,3.54,3.54,0,0,0-1.8-.45,3.74,3.74,0,0,0-2,.51,3.46,3.46,0,0,0-1.33,1.45,4.71,4.71,0,0,0-.48,2.19,4.77,4.77,0,0,0,.48,2.19,3.49,3.49,0,0,0,1.33,1.46,3.74,3.74,0,0,0,2,.51,3.44,3.44,0,0,0,1.8-.46,3,3,0,0,0,1.22-1.36h2.9a5.59,5.59,0,0,1-2.21,3,6.37,6.37,0,0,1-3.7,1.07,6.46,6.46,0,0,1-3.25-.82A6,6,0,0,1,320,59.91a7,7,0,0,1,0-6.64Z"/><path class="cls-6" d="M336.23,62.19a6.06,6.06,0,0,1-2.34-2.29,6.82,6.82,0,0,1,0-6.63A6.13,6.13,0,0,1,336.23,51a6.76,6.76,0,0,1,6.49,0A6.15,6.15,0,0,1,345,53.27a6.82,6.82,0,0,1,0,6.63,6.1,6.1,0,0,1-2.33,2.29,6.74,6.74,0,0,1-6.48,0Zm5.24-1.93a3.57,3.57,0,0,0,1.35-1.47,5.33,5.33,0,0,0,0-4.42,3.57,3.57,0,0,0-1.35-1.45,4.27,4.27,0,0,0-4,0,3.53,3.53,0,0,0-1.36,1.45,5.33,5.33,0,0,0,0,4.42,3.52,3.52,0,0,0,1.36,1.47,4.2,4.2,0,0,0,4,0Z"/><path class="cls-6" d="M350.25,50.33v7.78a2.64,2.64,0,0,0,.67,2,3,3,0,0,0,3.76,0,2.68,2.68,0,0,0,.66-2V50.33h2.54v7.76a5,5,0,0,1-.69,2.71,4.36,4.36,0,0,1-1.85,1.66,6,6,0,0,1-2.59.56,5.74,5.74,0,0,1-2.54-.56,4.15,4.15,0,0,1-1.81-1.66,5.11,5.11,0,0,1-.67-2.71V50.33Z"/><path class="cls-6" d="M371.06,62.89h-2.52l-5.71-8.62v8.62h-2.52V50.31h2.52L368.54,59V50.31h2.52Z"/><path class="cls-6" d="M382.09,50.33v2h-3.35V62.89h-2.52V52.36h-3.34v-2Z"/><path class="cls-6" d="M391.63,60.5h-5l-.83,2.39h-2.65l4.52-12.58h2.94l4.51,12.58h-2.66Zm-.68-2-1.82-5.25-1.82,5.25Z"/><path class="cls-6" d="M407.56,62.89H405l-5.7-8.62v8.62h-2.52V50.31h2.52L405,59V50.31h2.52Z"/><path class="cls-6" d="M418.6,50.33v2h-3.35V62.89h-2.52V52.36h-3.35v-2Z"/><path class="cls-6" d="M422.4,62.57a3.86,3.86,0,0,1-1.66-1.3,3.37,3.37,0,0,1-.63-2h2.7a1.72,1.72,0,0,0,.55,1.22,1.94,1.94,0,0,0,1.36.45,2.09,2.09,0,0,0,1.38-.42,1.37,1.37,0,0,0,.51-1.11,1.28,1.28,0,0,0-.35-.92,2.29,2.29,0,0,0-.85-.56,11.38,11.38,0,0,0-1.42-.46,15.91,15.91,0,0,1-2-.71,3.56,3.56,0,0,1-1.32-1.07,3,3,0,0,1-.55-1.9,3.4,3.4,0,0,1,.56-1.94,3.62,3.62,0,0,1,1.57-1.27,5.75,5.75,0,0,1,2.3-.44,4.94,4.94,0,0,1,3.16,1,3.47,3.47,0,0,1,1.34,2.63H426.3a1.43,1.43,0,0,0-.55-1.07,2.09,2.09,0,0,0-1.36-.42,1.73,1.73,0,0,0-1.18.38,1.36,1.36,0,0,0-.44,1.09,1.14,1.14,0,0,0,.33.84,2.71,2.71,0,0,0,.83.54,14.42,14.42,0,0,0,1.4.48,14.5,14.5,0,0,1,2,.72,3.64,3.64,0,0,1,1.34,1.08,3,3,0,0,1,.56,1.89,3.55,3.55,0,0,1-.53,1.87,3.62,3.62,0,0,1-1.53,1.38,5.23,5.23,0,0,1-2.39.51A6,6,0,0,1,422.4,62.57Z"/><path d="M174.74,57.46H173.3a.5.5,0,0,1,0-1h1.44a.5.5,0,0,1,0,1Zm-4.44,0h-3a.5.5,0,0,1,0-1h3a.5.5,0,0,1,0,1Zm-6,0h-3a.5.5,0,0,1,0-1h3a.5.5,0,0,1,0,1Zm-6,0h-3a.5.5,0,0,1,0-1h3a.5.5,0,0,1,0,1Zm-6,0h-3a.5.5,0,0,1,0-1h3a.5.5,0,0,1,0,1Zm-6,0h-3a.5.5,0,0,1,0-1h3a.5.5,0,0,1,0,1Zm-6,0h-3a.5.5,0,0,1,0-1h3a.5.5,0,0,1,0,1Zm-6,0h-3a.5.5,0,0,1,0-1h3a.5.5,0,0,1,0,1Zm-6,0h-3a.5.5,0,0,1,0-1h3a.5.5,0,0,1,0,1Zm-6,0h-3a.5.5,0,0,1,0-1h3a.5.5,0,0,1,0,1Zm-6,0h-3a.5.5,0,0,1,0-1h3a.5.5,0,0,1,0,1Zm-6,0h-3a.5.5,0,0,1,0-1h3a.5.5,0,0,1,0,1Zm-6,0h-3a.5.5,0,0,1,0-1h3a.5.5,0,0,1,0,1Zm-6,0h-3a.5.5,0,0,1,0-1h3a.5.5,0,0,1,0,1Z"/><path d="M515.16,57.46h-1.45a.5.5,0,0,1,0-1h1.45a.5.5,0,0,1,0,1Zm-4.45,0h-3a.5.5,0,0,1,0-1h3a.5.5,0,0,1,0,1Zm-6,0h-3a.5.5,0,0,1,0-1h3a.5.5,0,0,1,0,1Zm-6,0h-3a.5.5,0,0,1,0-1h3a.5.5,0,0,1,0,1Zm-6,0h-3a.5.5,0,0,1,0-1h3a.5.5,0,0,1,0,1Zm-6,0h-3a.5.5,0,0,1,0-1h3a.5.5,0,0,1,0,1Zm-6,0h-3a.5.5,0,0,1,0-1h3a.5.5,0,0,1,0,1Zm-6,0h-3a.5.5,0,0,1,0-1h3a.5.5,0,0,1,0,1Zm-6,0h-3a.5.5,0,0,1,0-1h3a.5.5,0,0,1,0,1Zm-6,0h-3a.5.5,0,0,1,0-1h3a.5.5,0,0,1,0,1Zm-6,0h-3a.5.5,0,0,1,0-1h3a.5.5,0,0,1,0,1Zm-6,0h-3a.5.5,0,0,1,0-1h3a.5.5,0,0,1,0,1Zm-6,0h-3a.5.5,0,0,1,0-1h3a.5.5,0,0,1,0,1Zm-6,0h-3a.5.5,0,0,1,0-1h3a.5.5,0,0,1,0,1Z"/></g></g></svg>