<svg xmlns="http://www.w3.org/2000/svg" viewBox="0 0 532.4 60.37"><defs><style>.cls-1,.cls-2,.cls-3{fill:#fff;}.cls-1{stroke:#fff;stroke-miterlimit:10;}.cls-3{fill-rule:evenodd;}</style></defs><g id="Layer_2" data-name="Layer 2"><g id="Layer_1-2" data-name="Layer 1"><path class="cls-1" d="M98,36.85a10.32,10.32,0,0,1-4.48-3.4A9.4,9.4,0,0,1,91.77,28h8.38a3.74,3.74,0,0,0,4,3.68,4.32,4.32,0,0,0,2.76-.81,2.91,2.91,0,0,0,.21-4.21,6.44,6.44,0,0,0-2-1.28,31.46,31.46,0,0,0-3.34-1.15,36,36,0,0,1-5.1-1.94,9.36,9.36,0,0,1-3.41-2.85,8,8,0,0,1-1.42-4.92,8.44,8.44,0,0,1,3.26-7.06,13.45,13.45,0,0,1,8.51-2.55,13.56,13.56,0,0,1,8.6,2.55,9.12,9.12,0,0,1,3.5,7.11h-8.51a3.35,3.35,0,0,0-1.15-2.47,4.09,4.09,0,0,0-2.71-.89,3.36,3.36,0,0,0-2.3.76,2.7,2.7,0,0,0-.88,2.18,2.71,2.71,0,0,0,1.47,2.44,25,25,0,0,0,4.6,1.89,42.69,42.69,0,0,1,5.09,2,9.63,9.63,0,0,1,3.38,2.81,7.48,7.48,0,0,1,1.42,4.73,9.27,9.27,0,0,1-1.4,5,9.81,9.81,0,0,1-4.07,3.59,13.93,13.93,0,0,1-6.3,1.33A16.56,16.56,0,0,1,98,36.85Z"/><path class="cls-1" d="M149.46,37.68,138.6,23.42V37.68h-7.86V5.39h7.86V19.55L149.37,5.39h9.24L146.1,21.21l13,16.47Z"/><path class="cls-1" d="M196.61,23.9a7.93,7.93,0,0,1,1.7,5,7.93,7.93,0,0,1-2.83,6.42q-2.83,2.37-7.89,2.37h-15V5.39h14.53c3.29,0,5.85.75,7.71,2.25a7.46,7.46,0,0,1,2.78,6.12,7.44,7.44,0,0,1-1.49,4.74,7.81,7.81,0,0,1-4,2.62A7.52,7.52,0,0,1,196.61,23.9Zm-16.2-5.45h5.16a4.54,4.54,0,0,0,3-.85,3.06,3.06,0,0,0,1-2.51,3.13,3.13,0,0,0-1-2.53,4.49,4.49,0,0,0-3-.87h-5.16Zm8.86,12a3.18,3.18,0,0,0,1.08-2.6,3.32,3.32,0,0,0-1.13-2.66,4.57,4.57,0,0,0-3.1-1h-5.71v7.13h5.8A4.65,4.65,0,0,0,189.27,30.43Z"/><path class="cls-1" d="M230.83,5.39V37.68H223V24.38H210.73v13.3h-7.87V5.39h7.87V18H223V5.39Z"/><path class="cls-1" d="M256.59,32h-12l-1.94,5.71h-8.23L246.05,5.39h9.11l11.69,32.29h-8.33Zm-2-6.07-4-11.82L246.61,25.9Z"/><path class="cls-1" d="M300.7,5.39,289.25,37.68h-9.84L268,5.39h8.37l8,24.38,8.05-24.38Z"/><path class="cls-1" d="M309.31,36.85a10.35,10.35,0,0,1-4.49-3.4A9.32,9.32,0,0,1,303.05,28h8.37a4,4,0,0,0,1.24,2.73,4,4,0,0,0,2.76.95,4.28,4.28,0,0,0,2.76-.81,2.67,2.67,0,0,0,1-2.23,2.65,2.65,0,0,0-.81-2,6.44,6.44,0,0,0-2-1.28,31.14,31.14,0,0,0-3.33-1.15A36.14,36.14,0,0,1,308,22.31a9.33,9.33,0,0,1-3.4-2.85,8,8,0,0,1-1.43-4.92,8.45,8.45,0,0,1,3.27-7.06,13.41,13.41,0,0,1,8.51-2.55,13.6,13.6,0,0,1,8.6,2.55,9.15,9.15,0,0,1,3.5,7.11h-8.51a3.39,3.39,0,0,0-1.15-2.47,4.1,4.1,0,0,0-2.72-.89,3.36,3.36,0,0,0-2.3.76,2.73,2.73,0,0,0-.87,2.18,2.71,2.71,0,0,0,1.47,2.44,24.45,24.45,0,0,0,4.6,1.89,42.45,42.45,0,0,1,5.08,2A9.54,9.54,0,0,1,326,23.33a7.48,7.48,0,0,1,1.43,4.73,9.36,9.36,0,0,1-1.4,5A9.93,9.93,0,0,1,322,36.67,13.94,13.94,0,0,1,315.65,38,16.51,16.51,0,0,1,309.31,36.85Z"/><path class="cls-1" d="M352.36,32H340.31l-1.93,5.71h-8.24L341.83,5.39h9.11l11.68,32.29h-8.33Zm-2-6.07-4-11.82-4,11.82Z"/><path class="cls-1" d="M382.63,37.68l-6.72-12.19H374V37.68h-7.87V5.39h13.2a14.5,14.5,0,0,1,6.51,1.33,9.18,9.18,0,0,1,4,3.66,10.18,10.18,0,0,1,1.33,5.17,9.59,9.59,0,0,1-1.81,5.75,9.83,9.83,0,0,1-5.36,3.59l7.45,12.79ZM374,19.92h4.87a4.45,4.45,0,0,0,3.25-1.06,4,4,0,0,0,1.08-3A3.85,3.85,0,0,0,382.15,13a4.45,4.45,0,0,0-3.25-1.06H374Z"/><path class="cls-1" d="M430.61,37.68l-3-2.9A17.08,17.08,0,0,1,417,38.18,15.82,15.82,0,0,1,410.46,37a9.67,9.67,0,0,1-4.26-3.45,9.17,9.17,0,0,1-1.49-5.22,9.7,9.7,0,0,1,1.63-5.49,11.79,11.79,0,0,1,4.9-4,10.16,10.16,0,0,1-1.7-2.83,8.33,8.33,0,0,1-.51-3,7.64,7.64,0,0,1,1.2-4.19,8.07,8.07,0,0,1,3.47-3,12.52,12.52,0,0,1,5.41-1.08,11.62,11.62,0,0,1,5.38,1.15A7.92,7.92,0,0,1,427.8,9a7.73,7.73,0,0,1,1,4.24h-7.4a2.46,2.46,0,0,0-.62-1.91,2.39,2.39,0,0,0-1.77-.67,2.68,2.68,0,0,0-1.84.64,2.09,2.09,0,0,0-.74,1.66,4,4,0,0,0,.62,2,13.33,13.33,0,0,0,2,2.44l7.86,7.68c.06-.15.15-.33.25-.55s.23-.46.35-.73l1.7-2.9h7.87l-2.21,4A38.3,38.3,0,0,1,432,30l7.77,7.64Zm-7.82-7.59-7.18-6.95q-3.32,1.71-3.31,4.6a3.68,3.68,0,0,0,1.36,2.92,5.39,5.39,0,0,0,3.65,1.18A9.09,9.09,0,0,0,422.79,30.09Z"/><path class="cls-1" d="M453.1,13a14.86,14.86,0,0,1,5.77-5.84A16.83,16.83,0,0,1,467.27,5a16.08,16.08,0,0,1,9.84,3,14.63,14.63,0,0,1,5.48,8.28h-8.65a7,7,0,0,0-2.74-3.08,7.73,7.73,0,0,0-4-1.06,7.52,7.52,0,0,0-5.89,2.53A9.82,9.82,0,0,0,459,21.49a9.81,9.81,0,0,0,2.26,6.76,7.52,7.52,0,0,0,5.89,2.53,7.64,7.64,0,0,0,4-1.06,7,7,0,0,0,2.74-3.08h8.65a14.45,14.45,0,0,1-5.48,8.25,16.14,16.14,0,0,1-9.84,3,16.73,16.73,0,0,1-8.4-2.1A14.85,14.85,0,0,1,453.1,30,17.24,17.24,0,0,1,451,21.49,17.38,17.38,0,0,1,453.1,13Z"/><path class="cls-1" d="M494.34,35.88a15.84,15.84,0,0,1-6-5.91,16.48,16.48,0,0,1-2.23-8.53,16.36,16.36,0,0,1,2.23-8.51,15.93,15.93,0,0,1,6-5.89A17.58,17.58,0,0,1,511,7a15.59,15.59,0,0,1,6,5.89,16.71,16.71,0,0,1,2.18,8.51A16.56,16.56,0,0,1,517,30a15.64,15.64,0,0,1-6,5.91,17.44,17.44,0,0,1-16.67,0Zm14.53-7.63a9.79,9.79,0,0,0,2.33-6.81,9.76,9.76,0,0,0-2.33-6.83,7.94,7.94,0,0,0-6.18-2.55,8.05,8.05,0,0,0-6.24,2.53,9.76,9.76,0,0,0-2.32,6.85,9.8,9.8,0,0,0,2.32,6.83,8,8,0,0,0,6.24,2.55A7.89,7.89,0,0,0,508.87,28.25Z"/><path class="cls-1" d="M523.87,36.83a4,4,0,0,1-1.31-3,4.1,4.1,0,0,1,1.31-3.08,4.71,4.71,0,0,1,3.38-1.24,4.67,4.67,0,0,1,3.34,1.24,4.1,4.1,0,0,1,1.31,3.08,4,4,0,0,1-1.31,3,4.74,4.74,0,0,1-3.34,1.22A4.79,4.79,0,0,1,523.87,36.83Z"/><path class="cls-1" d="M184.22,48.78a6,6,0,0,1,2.28-2.29,6.56,6.56,0,0,1,3.25-.81,6.41,6.41,0,0,1,3.69,1.08,5.61,5.61,0,0,1,2.21,3h-2.89a3,3,0,0,0-1.22-1.35,3.55,3.55,0,0,0-1.81-.45,3.65,3.65,0,0,0-1.95.52,3.46,3.46,0,0,0-1.33,1.45A4.71,4.71,0,0,0,186,52.1a4.77,4.77,0,0,0,.48,2.19,3.55,3.55,0,0,0,1.33,1.46,3.73,3.73,0,0,0,1.95.51,3.46,3.46,0,0,0,1.81-.46,3.12,3.12,0,0,0,1.22-1.36h2.89a5.58,5.58,0,0,1-2.2,3,6.89,6.89,0,0,1-6.95.25,5.88,5.88,0,0,1-2.28-2.28,6.49,6.49,0,0,1-.84-3.31A6.58,6.58,0,0,1,184.22,48.78Z"/><path class="cls-1" d="M208.24,45.84V58.4h-2.52V53.06h-5.39V58.4h-2.52V45.84h2.52V51h5.39V45.84Z"/><path class="cls-1" d="M218.42,56h-5l-.83,2.39H210l4.51-12.58h2.94l4.52,12.58h-2.67Zm-.68-2-1.82-5.25L214.1,54Z"/><path class="cls-1" d="M230.09,58.4l-2.77-4.89h-1.19V58.4h-2.52V45.84h4.71a5.56,5.56,0,0,1,2.49.51,3.54,3.54,0,0,1,1.54,1.39,3.78,3.78,0,0,1,.51,1.95,3.72,3.72,0,0,1-.72,2.24A3.66,3.66,0,0,1,230,53.31l3,5.09Zm-4-6.78h2.1a2.09,2.09,0,0,0,1.53-.5,1.83,1.83,0,0,0,.51-1.38,1.76,1.76,0,0,0-.51-1.34,2.17,2.17,0,0,0-1.53-.47h-2.1Z"/><path class="cls-1" d="M243.7,45.84v2h-3.35V58.4h-2.52V47.87h-3.35v-2Z"/><path class="cls-1" d="M248.05,47.87V51h4.23v2h-4.23v3.33h4.77v2h-7.29V45.82h7.29v2Z"/><path class="cls-1" d="M261.59,58.4l-2.77-4.89h-1.19V58.4h-2.52V45.84h4.71a5.56,5.56,0,0,1,2.49.51,3.54,3.54,0,0,1,1.54,1.39,3.78,3.78,0,0,1,.51,1.95,3.72,3.72,0,0,1-.72,2.24,3.66,3.66,0,0,1-2.14,1.38l3,5.09Zm-4-6.78h2.1a2.09,2.09,0,0,0,1.53-.5,1.83,1.83,0,0,0,.51-1.38,1.76,1.76,0,0,0-.51-1.34,2.17,2.17,0,0,0-1.53-.47h-2.1Z"/><path class="cls-1" d="M269.17,47.87V51h4.23v2h-4.23v3.33h4.77v2h-7.29V45.82h7.29v2Z"/><path class="cls-1" d="M284.1,46.61a5.56,5.56,0,0,1,2.32,2.21,6.51,6.51,0,0,1,.82,3.32,6.41,6.41,0,0,1-.82,3.3,5.64,5.64,0,0,1-2.32,2.19,7.63,7.63,0,0,1-3.49.77h-4.39V45.84h4.39A7.63,7.63,0,0,1,284.1,46.61Zm-.52,8.57a4.11,4.11,0,0,0,1.08-3,4.21,4.21,0,0,0-1.08-3.07A4.07,4.07,0,0,0,280.52,48h-1.78v8.3h1.78A4.14,4.14,0,0,0,283.58,55.18Z"/><path class="cls-1" d="M301.12,56h-5l-.83,2.39h-2.64l4.52-12.58h2.93l4.52,12.58h-2.67Zm-.69-2-1.82-5.25L296.8,54Z"/><path class="cls-1" d="M306.52,48.78a6,6,0,0,1,2.29-2.29,6.56,6.56,0,0,1,3.25-.81,6.41,6.41,0,0,1,3.69,1.08,5.61,5.61,0,0,1,2.21,3h-2.89a3,3,0,0,0-1.22-1.35,3.55,3.55,0,0,0-1.81-.45,3.65,3.65,0,0,0-2,.52,3.4,3.4,0,0,0-1.33,1.45,4.71,4.71,0,0,0-.48,2.19,4.77,4.77,0,0,0,.48,2.19,3.49,3.49,0,0,0,1.33,1.46,3.73,3.73,0,0,0,2,.51,3.46,3.46,0,0,0,1.81-.46,3.12,3.12,0,0,0,1.22-1.36H318a5.58,5.58,0,0,1-2.2,3,6.89,6.89,0,0,1-6.95.25,5.9,5.9,0,0,1-2.29-2.28,6.59,6.59,0,0,1-.83-3.31A6.68,6.68,0,0,1,306.52,48.78Z"/><path class="cls-1" d="M320.35,48.78a6,6,0,0,1,2.28-2.29,6.56,6.56,0,0,1,3.25-.81,6.36,6.36,0,0,1,3.69,1.08,5.62,5.62,0,0,1,2.22,3h-2.9a3,3,0,0,0-1.22-1.35,3.54,3.54,0,0,0-1.8-.45,3.66,3.66,0,0,0-2,.52,3.46,3.46,0,0,0-1.33,1.45,4.71,4.71,0,0,0-.48,2.19,4.77,4.77,0,0,0,.48,2.19,3.55,3.55,0,0,0,1.33,1.46,3.74,3.74,0,0,0,2,.51,3.44,3.44,0,0,0,1.8-.46,3.06,3.06,0,0,0,1.22-1.36h2.9a5.59,5.59,0,0,1-2.21,3,6.89,6.89,0,0,1-6.95.25,6,6,0,0,1-2.28-2.28,6.49,6.49,0,0,1-.84-3.31A6.58,6.58,0,0,1,320.35,48.78Z"/><path class="cls-1" d="M336.54,57.7a6.08,6.08,0,0,1-2.34-2.3,6.73,6.73,0,0,1,0-6.62,6.06,6.06,0,0,1,2.34-2.29,6.76,6.76,0,0,1,6.49,0,6.07,6.07,0,0,1,2.32,2.29,6.87,6.87,0,0,1,0,6.62A6.13,6.13,0,0,1,343,57.7a6.74,6.74,0,0,1-6.48,0Zm5.24-1.93a3.69,3.69,0,0,0,1.35-1.47,4.9,4.9,0,0,0,.48-2.22,4.79,4.79,0,0,0-.48-2.2,3.57,3.57,0,0,0-1.35-1.45,4.27,4.27,0,0,0-4,0,3.53,3.53,0,0,0-1.36,1.45,4.79,4.79,0,0,0-.48,2.2,4.9,4.9,0,0,0,.48,2.22,3.65,3.65,0,0,0,1.36,1.47,4.2,4.2,0,0,0,4,0Z"/><path class="cls-1" d="M350.56,45.84v7.77a2.65,2.65,0,0,0,.67,2,2.49,2.49,0,0,0,1.87.67,2.55,2.55,0,0,0,1.89-.67,2.69,2.69,0,0,0,.66-2V45.84h2.54V53.6a5.05,5.05,0,0,1-.69,2.71A4.42,4.42,0,0,1,355.65,58a6,6,0,0,1-2.59.56,5.74,5.74,0,0,1-2.54-.56,4.21,4.21,0,0,1-1.81-1.66A5.14,5.14,0,0,1,348,53.6V45.84Z"/><path class="cls-1" d="M371.37,58.4h-2.52l-5.71-8.62V58.4h-2.52V45.82h2.52l5.71,8.64V45.82h2.52Z"/><path class="cls-1" d="M382.4,45.84v2h-3.35V58.4h-2.52V47.87h-3.34v-2Z"/><path class="cls-1" d="M391.94,56h-5l-.83,2.39h-2.65L388,45.82h2.94l4.51,12.58h-2.66Zm-.68-2-1.82-5.25L387.62,54Z"/><path class="cls-1" d="M407.87,58.4h-2.52l-5.7-8.62V58.4h-2.52V45.82h2.52l5.7,8.64V45.82h2.52Z"/><path class="cls-1" d="M418.91,45.84v2h-3.35V58.4H413V47.87h-3.35v-2Z"/><path class="cls-1" d="M422.71,58.08a3.8,3.8,0,0,1-1.66-1.3,3.38,3.38,0,0,1-.63-2h2.7a1.73,1.73,0,0,0,.55,1.23,1.94,1.94,0,0,0,1.36.45,2.05,2.05,0,0,0,1.38-.43,1.35,1.35,0,0,0,.5-1.1,1.28,1.28,0,0,0-.34-.92,2.44,2.44,0,0,0-.85-.57c-.34-.13-.81-.29-1.42-.46a14.44,14.44,0,0,1-2-.71A3.43,3.43,0,0,1,421,51.21a3.06,3.06,0,0,1-.55-1.9,3.4,3.4,0,0,1,.56-1.94,3.55,3.55,0,0,1,1.57-1.27,5.75,5.75,0,0,1,2.3-.44,5,5,0,0,1,3.16.94,3.49,3.49,0,0,1,1.34,2.64h-2.77a1.47,1.47,0,0,0-.55-1.07,2.09,2.09,0,0,0-1.36-.42,1.77,1.77,0,0,0-1.18.37,1.39,1.39,0,0,0-.44,1.1,1.14,1.14,0,0,0,.33.84,2.71,2.71,0,0,0,.83.54,14.42,14.42,0,0,0,1.4.48,14.5,14.5,0,0,1,2,.72A3.64,3.64,0,0,1,429,52.88a3,3,0,0,1,.56,1.89,3.55,3.55,0,0,1-.53,1.87A3.75,3.75,0,0,1,427.47,58a5.23,5.23,0,0,1-2.39.51A6,6,0,0,1,422.71,58.08Z"/><line class="cls-2" x1="95.61" y1="52.47" x2="175.05" y2="52.47"/><path class="cls-2" d="M175.05,53h-1.44a.5.5,0,0,1-.5-.5.5.5,0,0,1,.5-.5h1.44a.5.5,0,0,1,.5.5A.5.5,0,0,1,175.05,53Zm-4.44,0h-3a.5.5,0,0,1-.5-.5.5.5,0,0,1,.5-.5h3a.5.5,0,0,1,.5.5A.51.51,0,0,1,170.61,53Zm-6,0h-3a.5.5,0,0,1-.5-.5.5.5,0,0,1,.5-.5h3a.5.5,0,0,1,.5.5A.51.51,0,0,1,164.61,53Zm-6,0h-3a.5.5,0,0,1-.5-.5.5.5,0,0,1,.5-.5h3a.5.5,0,0,1,.5.5A.51.51,0,0,1,158.61,53Zm-6,0h-3a.5.5,0,0,1-.5-.5.5.5,0,0,1,.5-.5h3a.5.5,0,0,1,.5.5A.51.51,0,0,1,152.61,53Zm-6,0h-3a.5.5,0,0,1-.5-.5.5.5,0,0,1,.5-.5h3a.5.5,0,0,1,.5.5A.51.51,0,0,1,146.61,53Zm-6,0h-3a.5.5,0,0,1-.5-.5.5.5,0,0,1,.5-.5h3a.5.5,0,0,1,.5.5A.51.51,0,0,1,140.61,53Zm-6,0h-3a.5.5,0,0,1-.5-.5.5.5,0,0,1,.5-.5h3a.5.5,0,0,1,.5.5A.51.51,0,0,1,134.61,53Zm-6,0h-3a.5.5,0,0,1-.5-.5.5.5,0,0,1,.5-.5h3a.5.5,0,0,1,.5.5A.51.51,0,0,1,128.61,53Zm-6,0h-3a.5.5,0,0,1-.5-.5.5.5,0,0,1,.5-.5h3a.5.5,0,0,1,.5.5A.51.51,0,0,1,122.61,53Zm-6,0h-3a.5.5,0,0,1-.5-.5.5.5,0,0,1,.5-.5h3a.5.5,0,0,1,.5.5A.51.51,0,0,1,116.61,53Zm-6,0h-3a.5.5,0,0,1-.5-.5.5.5,0,0,1,.5-.5h3a.5.5,0,0,1,.5.5A.51.51,0,0,1,110.61,53Zm-6,0h-3a.5.5,0,0,1-.5-.5.5.5,0,0,1,.5-.5h3a.5.5,0,0,1,.5.5A.51.51,0,0,1,104.61,53Zm-6,0h-3a.5.5,0,0,1-.5-.5.5.5,0,0,1,.5-.5h3a.5.5,0,0,1,.5.5A.51.51,0,0,1,98.61,53Z"/><line class="cls-2" x1="436.02" y1="52.47" x2="515.47" y2="52.47"/><path class="cls-2" d="M515.47,53H514a.5.5,0,0,1-.5-.5.5.5,0,0,1,.5-.5h1.45a.5.5,0,0,1,.5.5A.51.51,0,0,1,515.47,53ZM511,53h-3a.5.5,0,0,1-.5-.5.5.5,0,0,1,.5-.5h3a.5.5,0,0,1,.5.5A.5.5,0,0,1,511,53Zm-6,0h-3a.5.5,0,0,1-.5-.5.5.5,0,0,1,.5-.5h3a.5.5,0,0,1,.5.5A.5.5,0,0,1,505,53Zm-6,0h-3a.5.5,0,0,1-.5-.5.5.5,0,0,1,.5-.5h3a.5.5,0,0,1,.5.5A.5.5,0,0,1,499,53Zm-6,0h-3a.5.5,0,0,1-.5-.5.5.5,0,0,1,.5-.5h3a.5.5,0,0,1,.5.5A.5.5,0,0,1,493,53Zm-6,0h-3a.5.5,0,0,1-.5-.5.5.5,0,0,1,.5-.5h3a.5.5,0,0,1,.5.5A.5.5,0,0,1,487,53Zm-6,0h-3a.5.5,0,0,1-.5-.5.5.5,0,0,1,.5-.5h3a.5.5,0,0,1,.5.5A.5.5,0,0,1,481,53Zm-6,0h-3a.5.5,0,0,1-.5-.5.5.5,0,0,1,.5-.5h3a.5.5,0,0,1,.5.5A.5.5,0,0,1,475,53Zm-6,0h-3a.5.5,0,0,1-.5-.5.5.5,0,0,1,.5-.5h3a.5.5,0,0,1,.5.5A.5.5,0,0,1,469,53Zm-6,0h-3a.5.5,0,0,1-.5-.5.5.5,0,0,1,.5-.5h3a.5.5,0,0,1,.5.5A.5.5,0,0,1,463,53Zm-6,0h-3a.5.5,0,0,1-.5-.5.5.5,0,0,1,.5-.5h3a.5.5,0,0,1,.5.5A.5.5,0,0,1,457,53Zm-6,0h-3a.5.5,0,0,1-.5-.5.5.5,0,0,1,.5-.5h3a.5.5,0,0,1,.5.5A.5.5,0,0,1,451,53Zm-6,0h-3a.5.5,0,0,1-.5-.5.5.5,0,0,1,.5-.5h3a.5.5,0,0,1,.5.5A.5.5,0,0,1,445,53Zm-6,0h-3a.5.5,0,0,1-.5-.5.5.5,0,0,1,.5-.5h3a.5.5,0,0,1,.5.5A.5.5,0,0,1,439,53Z"/><polygon class="cls-3" points="54.56 23.76 47.87 10.16 47.21 10.86 53.71 24.1 54.56 23.76"/><path class="cls-3" d="M65.89,46.81,56.62,28l-.86.32L65,47.18a2.28,2.28,0,0,0,1.46,1.08l.17-.9c-.28,0-.54-.19-.78-.55"/><rect class="cls-2" x="7.23" y="49.68" width="2" height="10.67"/><polygon class="cls-2" points="23.61 49.67 25.62 49.67 25.62 60.35 24.37 60.35 24.37 60.37 18.76 53.16 18.76 60.35 16.75 60.35 16.75 49.68 18.38 49.68 23.61 56.3 23.61 49.67"/><path class="cls-2" d="M42.34,54.93A5,5,0,0,1,37,60.35H32.82V49.68H37a5,5,0,0,1,5.33,5.25m-7.53,3.48H37a3.41,3.41,0,0,0,0-6.82h-2.2Z"/><rect class="cls-2" x="49.17" y="49.68" width="2" height="10.67"/><path class="cls-2" d="M66.12,58.34H60.54l-.92,2H57.45l4.78-10.67h2.2l4.78,10.67H67Zm-2.79-6.42-2,4.54h4Z"/><path class="cls-3" d="M59.06,22l2.61-.24-9.79-20c-1.83-2.07-3.72-2.47-5.73.12L27.55,38.14a5.52,5.52,0,0,1-3.64,3C1.74,42-4.12,8,22.82,4.93l12.36.23c2.32,0,2.22-4.49,0-4.83L22,.26C-3.32.58-11.65,42.42,23.48,46.54A9.37,9.37,0,0,0,30,43.87L47.18,9.94c.76-1.65,1.57-1.77,2.42,0L56,23.17Z"/><path class="cls-3" d="M63.49,25.43l-5.39,2,9.06,18.67A6.7,6.7,0,0,0,73.52,46Z"/><path class="cls-3" d="M36.73,25c12.47-1,25.38-5,38.12-8.47C62.6,22.85,54,25,43.31,27.91L46.48,34l-3.8,1.69Z"/><path class="cls-3" d="M47,29.27c14.1-4.43,22.53-7,34.29-11.47A197.79,197.79,0,0,1,52.8,31.28L56,37.07l-3.44,2Z"/></g></g></svg>